<svg width="108" height="193" viewBox="0 0 108 193" fill="none" xmlns="http://www.w3.org/2000/svg">
<path d="M32.3633 151.818H80.3633C82.2711 151.818 83.8183 153.365 83.8184 155.272V169.454C83.8184 175.579 78.8527 180.545 72.7275 180.545H40.7275C34.2007 180.545 28.9094 175.254 28.9092 168.728V155.272C28.9093 153.365 30.4555 151.818 32.3633 151.818Z" stroke="#2A9D8F" stroke-width="5.45455"/>
<path d="M39.6367 155.636C37.0912 175.454 74.9076 178.182 72.7276 155.636" stroke="#2A9D8F" stroke-width="5.45455" stroke-linecap="round"/>
<circle cx="56.363" cy="85.4543" r="19.4545" stroke="#2A9D8F" stroke-width="5.45455"/>
<path d="M22.9082 13.6365H89.4541C92.9684 13.6367 95.8173 16.4854 95.8174 19.9998V31.0906H16.5449V19.9998C16.545 16.4853 19.3937 13.6365 22.9082 13.6365Z" stroke="#2C9D8F" stroke-width="5.45455"/>
<path d="M16.5449 33.0908L32.3631 149.818" stroke="#2A9D8F" stroke-width="5.45455" stroke-linecap="round"/>
<path d="M95.8174 33.0908L79.9992 149.818" stroke="#2A9D8F" stroke-width="5.45455" stroke-linecap="round"/>
</svg>
