<svg width="175" height="157" viewBox="0 0 175 157" fill="none" xmlns="http://www.w3.org/2000/svg">
<path d="M42.9961 82.9826C42.9961 68.0454 44.7585 57.9807 66.146 58.3391H111.55C129.622 58.339 135.297 60.8763 135.297 82.9826" stroke="#2A9D8F" stroke-width="5.97417"/>
<path d="M52.5543 60.5777C48.4918 52.2139 60.1713 40.4878 69.282 37.4278C84.9343 32.1705 87.6525 19.9036 87.0551 14.4272C98.2224 19.9939 113.824 31.1332 113.95 42.5058M101.99 58.0387C110.697 53.1721 114.009 47.8136 113.95 42.5058M113.95 42.5058C119.771 46.4388 130.039 55.4698 124.543 60.1296M134.102 68.7922H107.965M44.041 73.5715H86.4576" stroke="#2A9D8F" stroke-width="5.97417" stroke-linecap="round"/>
<path d="M33.4375 84.624H140.973C143.612 84.6242 145.752 86.7639 145.752 89.4033V130.625C145.752 135.574 141.739 139.586 136.79 139.586H37.6191C32.6701 139.586 28.6582 135.574 28.6582 130.625V89.4033C28.6582 86.7638 30.7979 84.624 33.4375 84.624Z" stroke="#2A9D8F" stroke-width="5.97417"/>
<path d="M54.645 100.754H122.153C124.792 100.754 126.932 102.894 126.932 105.534V119.872C126.932 122.511 124.792 124.651 122.153 124.651H54.645C52.0055 124.651 49.8658 122.511 49.8657 119.872V105.534C49.8657 102.894 52.0055 100.754 54.645 100.754Z" stroke="#2A9D8F" stroke-width="5.97417"/>
</svg>
