<svg width="101" height="103" viewBox="0 0 101 103" fill="none" xmlns="http://www.w3.org/2000/svg">
<path d="M14.7485 57.1996C14.7486 45.8261 16.1806 38.1626 33.5592 38.4355H70.4524C85.1369 38.4355 89.7485 40.3674 89.7485 57.1996" stroke="#2A9D8F" stroke-width="5.97417"/>
<path d="M22.5152 40.14C19.2142 33.7716 28.7045 24.8431 36.1074 22.5131C48.8259 18.5101 51.0346 9.1698 50.5492 5C59.6232 9.23859 72.3002 17.7203 72.4028 26.3797M62.685 38.2067C69.7596 34.5012 72.4507 30.4211 72.4028 26.3797M72.4028 26.3797C77.1328 29.3743 85.4763 36.2507 81.0103 39.7988M88.7773 46.3947H67.5394M15.5977 50.0338H50.0637" stroke="#2A9D8F" stroke-width="5.97417" stroke-linecap="round"/>
<path d="M8.4375 59.1621H92.9043C95.5439 59.1621 97.6836 61.3019 97.6836 63.9414V90.625C97.6835 95.5741 93.6717 99.5859 88.7227 99.5859H12.6191C7.67005 99.5859 3.65825 95.5741 3.6582 90.625V63.9414C3.6582 61.3019 5.79795 59.1621 8.4375 59.1621Z" stroke="#2A9D8F" stroke-width="5.97417"/>
<path d="M25.6699 71.4441H77.6123C80.2519 71.4441 82.3916 73.5838 82.3916 76.2234V83.4343C82.3916 86.0739 80.2519 88.2136 77.6123 88.2136H25.6699C23.0304 88.2136 20.8906 86.0739 20.8906 83.4343V76.2234C20.8906 73.5838 23.0304 71.4441 25.6699 71.4441Z" stroke="#2A9D8F" stroke-width="5.97417"/>
</svg>
