           <svg
              width="38"
              height="38"
              viewBox="0 0 38 38"
              fill="none"
              xmlns="http://www.w3.org/2000/svg"
            >
              <path
                d="M32.6562 5.9375V11.875C32.6562 12.0325 32.5937 12.1835 32.4823 12.2948C32.371 12.4062 32.22 12.4688 32.0625 12.4688C31.905 12.4688 31.754 12.4062 31.6427 12.2948C31.5313 12.1835 31.4688 12.0325 31.4688 11.875V6.53125H26.125C25.9675 6.53125 25.8165 6.46869 25.7052 6.35734C25.5938 6.24599 25.5312 6.09497 25.5312 5.9375C25.5312 5.78003 25.5938 5.62901 25.7052 5.51766C25.8165 5.40631 25.9675 5.34375 26.125 5.34375H32.0625C32.22 5.34375 32.371 5.40631 32.4823 5.51766C32.5937 5.62901 32.6562 5.78003 32.6562 5.9375ZM11.875 31.4688H6.53125V26.125C6.53125 25.9675 6.46869 25.8165 6.35734 25.7052C6.24599 25.5938 6.09497 25.5312 5.9375 25.5312C5.78003 25.5312 5.62901 25.5938 5.51766 25.7052C5.40631 25.8165 5.34375 25.9675 5.34375 26.125V32.0625C5.34375 32.22 5.40631 32.371 5.51766 32.4823C5.62901 32.5937 5.78003 32.6562 5.9375 32.6562H11.875C12.0325 32.6562 12.1835 32.5937 12.2948 32.4823C12.4062 32.371 12.4688 12.22 12.4688 32.0625C12.4688 31.905 12.4062 31.754 12.2948 31.6427C12.1835 31.5313 12.0325 31.4688 11.875 31.4688ZM32.0625 25.5312C31.905 25.5312 31.754 25.5938 31.6427 25.7052C31.5313 25.8165 31.4688 25.9675 31.4688 26.125V31.4688H26.125C25.9675 31.4688 25.8165 31.5313 25.7052 31.6427C25.5938 31.754 25.5312 31.905 25.5312 32.0625C25.5312 32.22 25.5938 32.371 25.7052 32.4823C25.8165 32.5937 25.9675 32.6562 26.125 32.6562H32.0625C32.22 32.6562 32.371 32.5937 32.4823 32.4823C32.5937 32.371 32.6562 32.22 32.6562 32.0625V26.125C32.6562 25.9675 32.5937 25.8165 32.4823 25.7052C32.371 25.5938 32.22 25.5312 32.0625 25.5312ZM5.9375 12.4688C6.09497 12.4688 6.24599 12.4062 6.35734 12.2948C6.46869 12.1835 6.53125 12.0325 6.53125 11.875V6.53125H11.875C12.0325 6.53125 12.1835 6.46869 12.2948 6.35734C12.4062 6.24599 12.4688 6.09497 12.4688 5.9375C12.4688 5.78003 12.4062 5.62901 12.2948 5.51766C12.1835 5.40631 12.0325 5.34375 11.875 5.34375H5.9375C5.78003 5.34375 5.62901 5.40631 5.51766 5.51766C5.40631 5.62901 5.34375 5.78003 5.34375 5.9375V11.875C5.34375 12.0325 5.40631 12.1835 5.51766 12.2948C5.62901 12.4062 5.78003 12.4688 5.9375 12.4688ZM11.875 11.2812H26.125C26.2825 11.2812 26.4335 11.3438 26.5448 11.4552C26.6562 11.5665 26.7188 11.7175 26.7188 11.875V26.125C26.7188 26.2825 26.6562 26.4335 26.5448 26.5448C26.4335 26.6562 26.2825 26.7188 26.125 26.7188H11.875C11.7175 26.7188 11.5665 26.6562 11.4552 26.5448C11.3438 26.4335 11.2812 26.2825 11.2812 26.125V11.875C11.2812 11.7175 11.3438 11.5665 11.4552 11.4552C11.5665 11.3438 11.7175 11.2812 11.875 11.2812ZM12.4688 25.5312H25.5312V12.4688H12.4688V25.5312Z"
                fill="white"
              />
            </svg>